<svg xmlns="http://www.w3.org/2000/svg" width="128" height="128" viewBox="0 0 64 64">
<rect x="1" y="1" width="62" height="62" rx="11" fill="#f4efdf"/>
<g stroke-linecap="round" stroke-linejoin="round"><path d="M9 54 H55" fill="none" stroke="#cd9c42" stroke-width="5"/><path d="M8 52 V28 H20 V52Z" fill="#7a2e3a" stroke="#293e3b" stroke-width="4"/><path d="M44 52 V32 H56 V52Z" fill="#7a2e3a" stroke="#293e3b" stroke-width="4"/><path d="M21 52 V19 A11 11 0 0 1 43 19 V52Z" fill="#7a2e3a" stroke="#293e3b" stroke-width="4"/><path d="M32 13 a4 4 0 1 1 -0.1 0Z M30 20 H34 L36 32 H28Z" fill="#cd9c42" stroke="#293e3b" stroke-width="1.5"/><path d="M11 34 H17 M11 41 H17 M47 38 H53 M47 45 H53" fill="none" stroke="#cd9c42" stroke-width="3"/><path d="M24 44 Q32 37 40 44 V52 H24Z" fill="#cd9c42" stroke="#293e3b" stroke-width="2"/></g>
</svg>
